<mxfile host="app.diagrams.net" modified="2023-11-19T07:41:32.158Z" agent="Mozilla/5.0 (Windows NT 10.0; Win64; x64; rv:109.0) Gecko/20100101 Firefox/119.0" etag="zj288g2lFWg2jAH5iui7" version="22.1.3" type="github">
  <diagram name="Page-1" id="Z9MfVGlIIhzYcIlHKhqI">
    <mxGraphModel dx="2508" dy="853" grid="1" gridSize="10" guides="1" tooltips="1" connect="1" arrows="1" fold="1" page="1" pageScale="1" pageWidth="850" pageHeight="1100" math="0" shadow="0">
      <root>
        <mxCell id="0" />
        <mxCell id="1" parent="0" />
        <mxCell id="muBw0kNhS03gDTI31TaH-17" style="edgeStyle=orthogonalEdgeStyle;rounded=0;orthogonalLoop=1;jettySize=auto;html=1;" edge="1" parent="1" source="muBw0kNhS03gDTI31TaH-1" target="muBw0kNhS03gDTI31TaH-16">
          <mxGeometry relative="1" as="geometry" />
        </mxCell>
        <mxCell id="muBw0kNhS03gDTI31TaH-1" value="main()" style="rounded=1;whiteSpace=wrap;html=1;arcSize=50;fillColor=#00FF00;" vertex="1" parent="1">
          <mxGeometry x="149.99" y="40" width="100" height="40" as="geometry" />
        </mxCell>
        <mxCell id="muBw0kNhS03gDTI31TaH-19" value="" style="edgeStyle=orthogonalEdgeStyle;rounded=0;orthogonalLoop=1;jettySize=auto;html=1;" edge="1" parent="1" source="muBw0kNhS03gDTI31TaH-16" target="muBw0kNhS03gDTI31TaH-18">
          <mxGeometry relative="1" as="geometry" />
        </mxCell>
        <mxCell id="muBw0kNhS03gDTI31TaH-21" value="YES" style="edgeLabel;html=1;align=center;verticalAlign=middle;resizable=0;points=[];" vertex="1" connectable="0" parent="muBw0kNhS03gDTI31TaH-19">
          <mxGeometry x="-0.075" y="2" relative="1" as="geometry">
            <mxPoint as="offset" />
          </mxGeometry>
        </mxCell>
        <mxCell id="muBw0kNhS03gDTI31TaH-23" value="" style="edgeStyle=orthogonalEdgeStyle;rounded=0;orthogonalLoop=1;jettySize=auto;html=1;" edge="1" parent="1" source="muBw0kNhS03gDTI31TaH-16" target="muBw0kNhS03gDTI31TaH-22">
          <mxGeometry relative="1" as="geometry" />
        </mxCell>
        <mxCell id="muBw0kNhS03gDTI31TaH-32" value="NO" style="edgeLabel;html=1;align=center;verticalAlign=middle;resizable=0;points=[];" vertex="1" connectable="0" parent="muBw0kNhS03gDTI31TaH-23">
          <mxGeometry x="-0.1429" y="-1" relative="1" as="geometry">
            <mxPoint as="offset" />
          </mxGeometry>
        </mxCell>
        <mxCell id="muBw0kNhS03gDTI31TaH-16" value="&lt;div&gt;is the variable&lt;/div&gt;&lt;div&gt;&#39;another&#39;&lt;/div&gt;&lt;div&gt;&amp;nbsp;= y or Y&lt;/div&gt;" style="rhombus;whiteSpace=wrap;html=1;" vertex="1" parent="1">
          <mxGeometry x="144.99" y="135" width="110" height="110" as="geometry" />
        </mxCell>
        <mxCell id="muBw0kNhS03gDTI31TaH-34" value="" style="edgeStyle=orthogonalEdgeStyle;rounded=0;orthogonalLoop=1;jettySize=auto;html=1;" edge="1" parent="1" source="muBw0kNhS03gDTI31TaH-18" target="muBw0kNhS03gDTI31TaH-33">
          <mxGeometry relative="1" as="geometry" />
        </mxCell>
        <mxCell id="muBw0kNhS03gDTI31TaH-36" value="YES" style="edgeLabel;html=1;align=center;verticalAlign=middle;resizable=0;points=[];" vertex="1" connectable="0" parent="muBw0kNhS03gDTI31TaH-34">
          <mxGeometry x="-0.25" y="2" relative="1" as="geometry">
            <mxPoint as="offset" />
          </mxGeometry>
        </mxCell>
        <mxCell id="muBw0kNhS03gDTI31TaH-38" value="" style="edgeStyle=orthogonalEdgeStyle;rounded=0;orthogonalLoop=1;jettySize=auto;html=1;" edge="1" parent="1" source="muBw0kNhS03gDTI31TaH-18" target="muBw0kNhS03gDTI31TaH-37">
          <mxGeometry relative="1" as="geometry" />
        </mxCell>
        <mxCell id="muBw0kNhS03gDTI31TaH-18" value="has an error occured" style="rhombus;whiteSpace=wrap;html=1;" vertex="1" parent="1">
          <mxGeometry x="310" y="130" width="110" height="110" as="geometry" />
        </mxCell>
        <mxCell id="muBw0kNhS03gDTI31TaH-25" value="" style="edgeStyle=orthogonalEdgeStyle;rounded=0;orthogonalLoop=1;jettySize=auto;html=1;" edge="1" parent="1" source="muBw0kNhS03gDTI31TaH-22" target="muBw0kNhS03gDTI31TaH-24">
          <mxGeometry relative="1" as="geometry" />
        </mxCell>
        <mxCell id="muBw0kNhS03gDTI31TaH-22" value="Display &quot;Good Bye&quot; " style="whiteSpace=wrap;html=1;" vertex="1" parent="1">
          <mxGeometry x="139.99" y="325" width="120" height="60" as="geometry" />
        </mxCell>
        <mxCell id="muBw0kNhS03gDTI31TaH-31" value="" style="edgeStyle=orthogonalEdgeStyle;rounded=0;orthogonalLoop=1;jettySize=auto;html=1;" edge="1" parent="1" source="muBw0kNhS03gDTI31TaH-24" target="muBw0kNhS03gDTI31TaH-30">
          <mxGeometry relative="1" as="geometry" />
        </mxCell>
        <mxCell id="muBw0kNhS03gDTI31TaH-24" value="&lt;div&gt;sleep()&lt;/div&gt;&lt;div&gt;for 2 seconds&lt;br&gt;&lt;/div&gt;" style="shape=process;whiteSpace=wrap;html=1;backgroundOutline=1;" vertex="1" parent="1">
          <mxGeometry x="139.99" y="410" width="120" height="60" as="geometry" />
        </mxCell>
        <mxCell id="muBw0kNhS03gDTI31TaH-30" value="&lt;span style=&quot;background-color: rgb(255, 0, 0);&quot;&gt;End&lt;/span&gt;" style="rounded=1;whiteSpace=wrap;html=1;arcSize=50;fillColor=#FF0000;" vertex="1" parent="1">
          <mxGeometry x="110" y="580" width="120" height="60" as="geometry" />
        </mxCell>
        <mxCell id="muBw0kNhS03gDTI31TaH-35" style="edgeStyle=orthogonalEdgeStyle;rounded=0;orthogonalLoop=1;jettySize=auto;html=1;entryX=1;entryY=0.5;entryDx=0;entryDy=0;" edge="1" parent="1" source="muBw0kNhS03gDTI31TaH-33" target="muBw0kNhS03gDTI31TaH-1">
          <mxGeometry relative="1" as="geometry" />
        </mxCell>
        <mxCell id="muBw0kNhS03gDTI31TaH-33" value="display the error and after 3 seconds call main() again" style="whiteSpace=wrap;html=1;" vertex="1" parent="1">
          <mxGeometry x="305" y="30" width="120" height="60" as="geometry" />
        </mxCell>
        <mxCell id="muBw0kNhS03gDTI31TaH-40" value="" style="edgeStyle=orthogonalEdgeStyle;rounded=0;orthogonalLoop=1;jettySize=auto;html=1;" edge="1" parent="1" source="muBw0kNhS03gDTI31TaH-37" target="muBw0kNhS03gDTI31TaH-39">
          <mxGeometry relative="1" as="geometry" />
        </mxCell>
        <mxCell id="muBw0kNhS03gDTI31TaH-37" value="user input for file name" style="shape=parallelogram;perimeter=parallelogramPerimeter;whiteSpace=wrap;html=1;fixedSize=1;" vertex="1" parent="1">
          <mxGeometry x="305" y="265" width="120" height="60" as="geometry" />
        </mxCell>
        <mxCell id="muBw0kNhS03gDTI31TaH-44" value="" style="edgeStyle=orthogonalEdgeStyle;rounded=0;orthogonalLoop=1;jettySize=auto;html=1;" edge="1" parent="1" source="muBw0kNhS03gDTI31TaH-39" target="muBw0kNhS03gDTI31TaH-43">
          <mxGeometry relative="1" as="geometry" />
        </mxCell>
        <mxCell id="muBw0kNhS03gDTI31TaH-39" value="open file object using the user input, assign it to variable &#39;file&#39;" style="whiteSpace=wrap;html=1;" vertex="1" parent="1">
          <mxGeometry x="305" y="350" width="120" height="60" as="geometry" />
        </mxCell>
        <mxCell id="muBw0kNhS03gDTI31TaH-46" value="" style="edgeStyle=orthogonalEdgeStyle;rounded=0;orthogonalLoop=1;jettySize=auto;html=1;" edge="1" parent="1" source="muBw0kNhS03gDTI31TaH-43" target="muBw0kNhS03gDTI31TaH-45">
          <mxGeometry relative="1" as="geometry" />
        </mxCell>
        <mxCell id="muBw0kNhS03gDTI31TaH-43" value="linePrint()" style="shape=process;whiteSpace=wrap;html=1;backgroundOutline=1;" vertex="1" parent="1">
          <mxGeometry x="305" y="430" width="120" height="60" as="geometry" />
        </mxCell>
        <mxCell id="muBw0kNhS03gDTI31TaH-48" value="" style="edgeStyle=orthogonalEdgeStyle;rounded=0;orthogonalLoop=1;jettySize=auto;html=1;" edge="1" parent="1" source="muBw0kNhS03gDTI31TaH-45" target="muBw0kNhS03gDTI31TaH-47">
          <mxGeometry relative="1" as="geometry" />
        </mxCell>
        <mxCell id="muBw0kNhS03gDTI31TaH-45" value="display header text" style="whiteSpace=wrap;html=1;" vertex="1" parent="1">
          <mxGeometry x="305" y="520" width="120" height="60" as="geometry" />
        </mxCell>
        <mxCell id="muBw0kNhS03gDTI31TaH-50" value="" style="edgeStyle=orthogonalEdgeStyle;rounded=0;orthogonalLoop=1;jettySize=auto;html=1;" edge="1" parent="1" source="muBw0kNhS03gDTI31TaH-47" target="muBw0kNhS03gDTI31TaH-49">
          <mxGeometry relative="1" as="geometry">
            <Array as="points">
              <mxPoint x="440" y="650" />
              <mxPoint x="440" y="190" />
            </Array>
          </mxGeometry>
        </mxCell>
        <mxCell id="muBw0kNhS03gDTI31TaH-47" value="linePrint()" style="shape=process;whiteSpace=wrap;html=1;backgroundOutline=1;" vertex="1" parent="1">
          <mxGeometry x="305" y="620" width="120" height="60" as="geometry" />
        </mxCell>
        <mxCell id="muBw0kNhS03gDTI31TaH-52" value="" style="edgeStyle=orthogonalEdgeStyle;rounded=0;orthogonalLoop=1;jettySize=auto;html=1;" edge="1" parent="1" source="muBw0kNhS03gDTI31TaH-49" target="muBw0kNhS03gDTI31TaH-51">
          <mxGeometry relative="1" as="geometry">
            <Array as="points">
              <mxPoint x="528" y="300" />
              <mxPoint x="528" y="300" />
            </Array>
          </mxGeometry>
        </mxCell>
        <mxCell id="muBw0kNhS03gDTI31TaH-49" value="&lt;div&gt;call newLine(file)x3&lt;/div&gt;&lt;div&gt;assign the values to vars &#39;course&#39;, &#39;professor&#39;, and &#39;term&#39;&lt;br&gt;&lt;/div&gt;" style="shape=process;whiteSpace=wrap;html=1;backgroundOutline=1;" vertex="1" parent="1">
          <mxGeometry x="458.75" y="150" width="155" height="80" as="geometry" />
        </mxCell>
        <mxCell id="muBw0kNhS03gDTI31TaH-54" value="" style="edgeStyle=orthogonalEdgeStyle;rounded=0;orthogonalLoop=1;jettySize=auto;html=1;" edge="1" parent="1" source="muBw0kNhS03gDTI31TaH-51" target="muBw0kNhS03gDTI31TaH-53">
          <mxGeometry relative="1" as="geometry" />
        </mxCell>
        <mxCell id="muBw0kNhS03gDTI31TaH-51" value="display header text using the vars &#39;course&#39;, &#39;professor&#39;, and &#39;term&#39;" style="whiteSpace=wrap;html=1;" vertex="1" parent="1">
          <mxGeometry x="476.25" y="265" width="120" height="60" as="geometry" />
        </mxCell>
        <mxCell id="muBw0kNhS03gDTI31TaH-56" value="" style="edgeStyle=orthogonalEdgeStyle;rounded=0;orthogonalLoop=1;jettySize=auto;html=1;" edge="1" parent="1" source="muBw0kNhS03gDTI31TaH-53" target="muBw0kNhS03gDTI31TaH-55">
          <mxGeometry relative="1" as="geometry" />
        </mxCell>
        <mxCell id="muBw0kNhS03gDTI31TaH-53" value="display more header text" style="whiteSpace=wrap;html=1;" vertex="1" parent="1">
          <mxGeometry x="476.25" y="360" width="120" height="60" as="geometry" />
        </mxCell>
        <mxCell id="muBw0kNhS03gDTI31TaH-58" value="" style="edgeStyle=orthogonalEdgeStyle;rounded=0;orthogonalLoop=1;jettySize=auto;html=1;" edge="1" parent="1" source="muBw0kNhS03gDTI31TaH-55" target="muBw0kNhS03gDTI31TaH-57">
          <mxGeometry relative="1" as="geometry" />
        </mxCell>
        <mxCell id="muBw0kNhS03gDTI31TaH-55" value="linePrint()" style="shape=process;whiteSpace=wrap;html=1;backgroundOutline=1;" vertex="1" parent="1">
          <mxGeometry x="476.25" y="450" width="120" height="60" as="geometry" />
        </mxCell>
        <mxCell id="muBw0kNhS03gDTI31TaH-60" value="" style="edgeStyle=orthogonalEdgeStyle;rounded=0;orthogonalLoop=1;jettySize=auto;html=1;" edge="1" parent="1" source="muBw0kNhS03gDTI31TaH-57" target="muBw0kNhS03gDTI31TaH-59">
          <mxGeometry relative="1" as="geometry" />
        </mxCell>
        <mxCell id="muBw0kNhS03gDTI31TaH-57" value="&lt;div&gt;call newLine(file) x 2&lt;/div&gt;assigns the values to vars &#39;name&#39; &amp;amp; &#39;grade&#39;" style="shape=process;whiteSpace=wrap;html=1;backgroundOutline=1;" vertex="1" parent="1">
          <mxGeometry x="450" y="540" width="172.5" height="70" as="geometry" />
        </mxCell>
        <mxCell id="muBw0kNhS03gDTI31TaH-63" value="NO" style="edgeStyle=orthogonalEdgeStyle;rounded=0;orthogonalLoop=1;jettySize=auto;html=1;" edge="1" parent="1" source="muBw0kNhS03gDTI31TaH-59" target="muBw0kNhS03gDTI31TaH-62">
          <mxGeometry relative="1" as="geometry" />
        </mxCell>
        <mxCell id="muBw0kNhS03gDTI31TaH-73" value="" style="edgeStyle=orthogonalEdgeStyle;rounded=0;orthogonalLoop=1;jettySize=auto;html=1;" edge="1" parent="1" source="muBw0kNhS03gDTI31TaH-59" target="muBw0kNhS03gDTI31TaH-72">
          <mxGeometry relative="1" as="geometry" />
        </mxCell>
        <mxCell id="muBw0kNhS03gDTI31TaH-88" value="YES" style="edgeLabel;html=1;align=center;verticalAlign=middle;resizable=0;points=[];" vertex="1" connectable="0" parent="muBw0kNhS03gDTI31TaH-73">
          <mxGeometry x="-0.0796" relative="1" as="geometry">
            <mxPoint as="offset" />
          </mxGeometry>
        </mxCell>
        <mxCell id="muBw0kNhS03gDTI31TaH-59" value="&lt;div&gt;are&amp;nbsp;&lt;/div&gt;&lt;div&gt;&#39;name&#39; or &#39;grade&#39;&amp;nbsp;&lt;/div&gt;&lt;div&gt;not = &#39; &#39; &lt;/div&gt;" style="rhombus;whiteSpace=wrap;html=1;" vertex="1" parent="1">
          <mxGeometry x="474.38" y="640" width="123.75" height="110" as="geometry" />
        </mxCell>
        <mxCell id="muBw0kNhS03gDTI31TaH-65" value="" style="edgeStyle=orthogonalEdgeStyle;rounded=0;orthogonalLoop=1;jettySize=auto;html=1;" edge="1" parent="1" source="muBw0kNhS03gDTI31TaH-62" target="muBw0kNhS03gDTI31TaH-64">
          <mxGeometry relative="1" as="geometry" />
        </mxCell>
        <mxCell id="muBw0kNhS03gDTI31TaH-62" value="display more header text" style="whiteSpace=wrap;html=1;" vertex="1" parent="1">
          <mxGeometry x="299.995" y="700" width="120" height="60" as="geometry" />
        </mxCell>
        <mxCell id="muBw0kNhS03gDTI31TaH-67" value="" style="edgeStyle=orthogonalEdgeStyle;rounded=0;orthogonalLoop=1;jettySize=auto;html=1;" edge="1" parent="1" source="muBw0kNhS03gDTI31TaH-64" target="muBw0kNhS03gDTI31TaH-66">
          <mxGeometry relative="1" as="geometry" />
        </mxCell>
        <mxCell id="muBw0kNhS03gDTI31TaH-64" value="lineprint()" style="shape=process;whiteSpace=wrap;html=1;backgroundOutline=1;" vertex="1" parent="1">
          <mxGeometry x="160.005" y="700" width="120" height="60" as="geometry" />
        </mxCell>
        <mxCell id="muBw0kNhS03gDTI31TaH-70" value="" style="edgeStyle=orthogonalEdgeStyle;rounded=0;orthogonalLoop=1;jettySize=auto;html=1;" edge="1" parent="1" source="muBw0kNhS03gDTI31TaH-66" target="muBw0kNhS03gDTI31TaH-69">
          <mxGeometry relative="1" as="geometry">
            <Array as="points">
              <mxPoint x="53" y="610" />
              <mxPoint x="53" y="610" />
            </Array>
          </mxGeometry>
        </mxCell>
        <mxCell id="muBw0kNhS03gDTI31TaH-66" value="display the value of pass, fail, gradeAvg, and pass%" style="whiteSpace=wrap;html=1;" vertex="1" parent="1">
          <mxGeometry x="-7.515000000000004" y="700" width="120" height="60" as="geometry" />
        </mxCell>
        <mxCell id="muBw0kNhS03gDTI31TaH-71" style="edgeStyle=orthogonalEdgeStyle;rounded=0;orthogonalLoop=1;jettySize=auto;html=1;entryX=0;entryY=0.5;entryDx=0;entryDy=0;" edge="1" parent="1" source="muBw0kNhS03gDTI31TaH-69" target="muBw0kNhS03gDTI31TaH-16">
          <mxGeometry relative="1" as="geometry" />
        </mxCell>
        <mxCell id="muBw0kNhS03gDTI31TaH-69" value="take user input (y/n) to do a newfile and assigning the new input to var &#39;another&#39;" style="shape=parallelogram;perimeter=parallelogramPerimeter;whiteSpace=wrap;html=1;fixedSize=1;" vertex="1" parent="1">
          <mxGeometry x="-40.019999999999996" y="250" width="185.01" height="70" as="geometry" />
        </mxCell>
        <mxCell id="muBw0kNhS03gDTI31TaH-83" value="" style="edgeStyle=orthogonalEdgeStyle;rounded=0;orthogonalLoop=1;jettySize=auto;html=1;" edge="1" parent="1" source="muBw0kNhS03gDTI31TaH-72" target="muBw0kNhS03gDTI31TaH-82">
          <mxGeometry relative="1" as="geometry">
            <Array as="points">
              <mxPoint x="692" y="570" />
            </Array>
          </mxGeometry>
        </mxCell>
        <mxCell id="muBw0kNhS03gDTI31TaH-84" value="True" style="edgeLabel;html=1;align=center;verticalAlign=middle;resizable=0;points=[];" vertex="1" connectable="0" parent="muBw0kNhS03gDTI31TaH-83">
          <mxGeometry x="-0.3381" relative="1" as="geometry">
            <mxPoint as="offset" />
          </mxGeometry>
        </mxCell>
        <mxCell id="muBw0kNhS03gDTI31TaH-86" value="" style="edgeStyle=orthogonalEdgeStyle;rounded=0;orthogonalLoop=1;jettySize=auto;html=1;" edge="1" parent="1" source="muBw0kNhS03gDTI31TaH-72" target="muBw0kNhS03gDTI31TaH-85">
          <mxGeometry relative="1" as="geometry" />
        </mxCell>
        <mxCell id="muBw0kNhS03gDTI31TaH-89" value="False" style="edgeLabel;html=1;align=center;verticalAlign=middle;resizable=0;points=[];" vertex="1" connectable="0" parent="muBw0kNhS03gDTI31TaH-86">
          <mxGeometry x="-0.2444" y="-2" relative="1" as="geometry">
            <mxPoint as="offset" />
          </mxGeometry>
        </mxCell>
        <mxCell id="muBw0kNhS03gDTI31TaH-72" value="if grade &amp;gt;= 60 " style="rhombus;whiteSpace=wrap;html=1;" vertex="1" parent="1">
          <mxGeometry x="650" y="640" width="123.75" height="110" as="geometry" />
        </mxCell>
        <mxCell id="muBw0kNhS03gDTI31TaH-74" style="edgeStyle=orthogonalEdgeStyle;rounded=0;orthogonalLoop=1;jettySize=auto;html=1;entryX=1;entryY=0.5;entryDx=0;entryDy=0;" edge="1" parent="1" source="muBw0kNhS03gDTI31TaH-75" target="muBw0kNhS03gDTI31TaH-81">
          <mxGeometry relative="1" as="geometry">
            <Array as="points">
              <mxPoint x="-95" y="160" />
              <mxPoint x="-95" y="50" />
            </Array>
          </mxGeometry>
        </mxCell>
        <mxCell id="muBw0kNhS03gDTI31TaH-75" value="Display&amp;nbsp; &#39;-&#39; 70 times on one line" style="rounded=1;whiteSpace=wrap;html=1;arcSize=0;" vertex="1" parent="1">
          <mxGeometry x="-225" y="120" width="120" height="60" as="geometry" />
        </mxCell>
        <mxCell id="muBw0kNhS03gDTI31TaH-76" value="" style="edgeStyle=orthogonalEdgeStyle;rounded=0;orthogonalLoop=1;jettySize=auto;html=1;" edge="1" parent="1" source="muBw0kNhS03gDTI31TaH-77">
          <mxGeometry relative="1" as="geometry">
            <mxPoint x="-170" y="280" as="targetPoint" />
          </mxGeometry>
        </mxCell>
        <mxCell id="muBw0kNhS03gDTI31TaH-77" value="newLine(data)" style="rounded=1;whiteSpace=wrap;html=1;arcSize=50;fillColor=#00FF00;" vertex="1" parent="1">
          <mxGeometry x="-225" y="210" width="110" height="40" as="geometry" />
        </mxCell>
        <mxCell id="muBw0kNhS03gDTI31TaH-78" style="edgeStyle=orthogonalEdgeStyle;rounded=0;orthogonalLoop=1;jettySize=auto;html=1;entryX=1;entryY=0.5;entryDx=0;entryDy=0;" edge="1" parent="1" source="muBw0kNhS03gDTI31TaH-79" target="muBw0kNhS03gDTI31TaH-77">
          <mxGeometry relative="1" as="geometry">
            <Array as="points">
              <mxPoint x="-95" y="310" />
              <mxPoint x="-95" y="230" />
            </Array>
          </mxGeometry>
        </mxCell>
        <mxCell id="muBw0kNhS03gDTI31TaH-79" value="&lt;div&gt;reutrn the value of&lt;/div&gt;&lt;div&gt;data.readline().strip()&lt;br&gt;&lt;/div&gt;" style="rounded=0;whiteSpace=wrap;html=1;" vertex="1" parent="1">
          <mxGeometry x="-230" y="280" width="120" height="60" as="geometry" />
        </mxCell>
        <mxCell id="muBw0kNhS03gDTI31TaH-80" style="edgeStyle=orthogonalEdgeStyle;rounded=0;orthogonalLoop=1;jettySize=auto;html=1;entryX=0.5;entryY=0;entryDx=0;entryDy=0;" edge="1" parent="1" source="muBw0kNhS03gDTI31TaH-81" target="muBw0kNhS03gDTI31TaH-75">
          <mxGeometry relative="1" as="geometry" />
        </mxCell>
        <mxCell id="muBw0kNhS03gDTI31TaH-81" value="linePrint()" style="rounded=1;whiteSpace=wrap;html=1;arcSize=50;fillColor=#00FF00;" vertex="1" parent="1">
          <mxGeometry x="-215" y="30" width="100" height="40" as="geometry" />
        </mxCell>
        <mxCell id="muBw0kNhS03gDTI31TaH-91" style="edgeStyle=orthogonalEdgeStyle;rounded=0;orthogonalLoop=1;jettySize=auto;html=1;entryX=1;entryY=0.5;entryDx=0;entryDy=0;" edge="1" parent="1" source="muBw0kNhS03gDTI31TaH-82" target="muBw0kNhS03gDTI31TaH-90">
          <mxGeometry relative="1" as="geometry" />
        </mxCell>
        <mxCell id="muBw0kNhS03gDTI31TaH-82" value="var &#39;passing&#39; + 1" style="whiteSpace=wrap;html=1;" vertex="1" parent="1">
          <mxGeometry x="830.005" y="550" width="120" height="60" as="geometry" />
        </mxCell>
        <mxCell id="muBw0kNhS03gDTI31TaH-92" style="edgeStyle=orthogonalEdgeStyle;rounded=0;orthogonalLoop=1;jettySize=auto;html=1;" edge="1" parent="1" source="muBw0kNhS03gDTI31TaH-85">
          <mxGeometry relative="1" as="geometry">
            <mxPoint x="970" y="530" as="targetPoint" />
          </mxGeometry>
        </mxCell>
        <mxCell id="muBw0kNhS03gDTI31TaH-85" value="var &#39;failing&#39; + 1" style="whiteSpace=wrap;html=1;" vertex="1" parent="1">
          <mxGeometry x="829.995" y="665" width="120" height="60" as="geometry" />
        </mxCell>
        <mxCell id="muBw0kNhS03gDTI31TaH-94" value="" style="edgeStyle=orthogonalEdgeStyle;rounded=0;orthogonalLoop=1;jettySize=auto;html=1;" edge="1" parent="1" source="muBw0kNhS03gDTI31TaH-90" target="muBw0kNhS03gDTI31TaH-93">
          <mxGeometry relative="1" as="geometry" />
        </mxCell>
        <mxCell id="muBw0kNhS03gDTI31TaH-90" value="var &#39;students&#39; + 1" style="rounded=0;whiteSpace=wrap;html=1;" vertex="1" parent="1">
          <mxGeometry x="830.01" y="450" width="120" height="60" as="geometry" />
        </mxCell>
        <mxCell id="muBw0kNhS03gDTI31TaH-98" value="" style="edgeStyle=orthogonalEdgeStyle;rounded=0;orthogonalLoop=1;jettySize=auto;html=1;" edge="1" parent="1" source="muBw0kNhS03gDTI31TaH-93" target="muBw0kNhS03gDTI31TaH-97">
          <mxGeometry relative="1" as="geometry" />
        </mxCell>
        <mxCell id="muBw0kNhS03gDTI31TaH-93" value="var &#39;gradeSum&#39; = gradeSum + int(grade) " style="rounded=0;whiteSpace=wrap;html=1;" vertex="1" parent="1">
          <mxGeometry x="831.99" y="350" width="120" height="60" as="geometry" />
        </mxCell>
        <mxCell id="muBw0kNhS03gDTI31TaH-99" style="edgeStyle=orthogonalEdgeStyle;rounded=0;orthogonalLoop=1;jettySize=auto;html=1;entryX=0.5;entryY=1;entryDx=0;entryDy=0;" edge="1" parent="1" source="muBw0kNhS03gDTI31TaH-97" target="muBw0kNhS03gDTI31TaH-59">
          <mxGeometry relative="1" as="geometry">
            <Array as="points">
              <mxPoint x="1000" y="275" />
              <mxPoint x="1000" y="770" />
              <mxPoint x="536" y="770" />
            </Array>
          </mxGeometry>
        </mxCell>
        <mxCell id="muBw0kNhS03gDTI31TaH-97" value="&lt;div&gt;call newLine(file) x 2&lt;/div&gt;assigns the values to vars &#39;name&#39; &amp;amp; &#39;grade&#39;" style="shape=process;whiteSpace=wrap;html=1;backgroundOutline=1;" vertex="1" parent="1">
          <mxGeometry x="803.74" y="240" width="172.5" height="70" as="geometry" />
        </mxCell>
      </root>
    </mxGraphModel>
  </diagram>
</mxfile>
